<?xml version="1.0"?>
<!DOCTYPE svg PUBLIC "-//W3C//DTD SVG 1.1//EN" "http://www.w3.org/Graphics/SVG/1.1/DTD/svg11.dtd">
<!--Phoronix Test Suite v4.0.0m2 (Suldal) [ http://www.phoronix-test-suite.com/ ]-->
<svg xmlns="http://www.w3.org/2000/svg" xmlns:xlink="http://www.w3.org/1999/xlink" version="1.1" font-family="sans-serif" viewbox="0 0 1000 536" width="1000" height="536">
  <rect x="1" y="1" width="998" height="535" fill="#FEFEFE" stroke="#757575" stroke-width="1"/>
  <rect x="30" y="48" width="10" height="10" fill="#569506" stroke="#757575" stroke-width="1"/>
  <text x="43" y="57" font-size="9" fill="#569506" text-anchor="start">NVIDIA ION 1</text>
  <rect x="156" y="48" width="10" height="10" fill="#e12121" stroke="#757575" stroke-width="1"/>
  <text x="169" y="57" font-size="9" fill="#e12121" text-anchor="start">Atom D2700 + GT520M</text>
  <rect x="30" y="76" width="960" height="100" fill="#BABABA" stroke="#757575" stroke-width="1"/>
  <a xlink:href="http://knurdtech.com/" xlink:show="new">
    <text x="988" y="88" font-size="10" fill="#065695" text-anchor="end" xlink:show="new">KNURDTECH.COM</text>
  </a>
  <text x="21" y="164" font-size="10" fill="#065695" text-anchor="end">0.2</text>
  <line x1="41" y1="160" x2="990" y2="160" stroke="#949494" stroke-width="1" stroke-dasharray="5,5"/>
  <line x1="30" y1="160" x2="990" y2="160" stroke="#757575" stroke-width="1" stroke-dasharray="5,5"/>
  <line x1="26" y1="160" x2="34" y2="160" stroke="#757575" stroke-width="1"/>
  <text x="21" y="147" font-size="10" fill="#065695" text-anchor="end">0.4</text>
  <line x1="41" y1="143" x2="990" y2="143" stroke="#949494" stroke-width="1" stroke-dasharray="5,5"/>
  <line x1="30" y1="143" x2="990" y2="143" stroke="#757575" stroke-width="1" stroke-dasharray="5,5"/>
  <line x1="26" y1="143" x2="34" y2="143" stroke="#757575" stroke-width="1"/>
  <text x="21" y="130" font-size="10" fill="#065695" text-anchor="end">0.6</text>
  <line x1="41" y1="126" x2="990" y2="126" stroke="#949494" stroke-width="1" stroke-dasharray="5,5"/>
  <line x1="30" y1="126" x2="990" y2="126" stroke="#757575" stroke-width="1" stroke-dasharray="5,5"/>
  <line x1="26" y1="126" x2="34" y2="126" stroke="#757575" stroke-width="1"/>
  <text x="21" y="113" font-size="10" fill="#065695" text-anchor="end">0.8</text>
  <line x1="41" y1="109" x2="990" y2="109" stroke="#949494" stroke-width="1" stroke-dasharray="5,5"/>
  <line x1="30" y1="109" x2="990" y2="109" stroke="#757575" stroke-width="1" stroke-dasharray="5,5"/>
  <line x1="26" y1="109" x2="34" y2="109" stroke="#757575" stroke-width="1"/>
  <text x="21" y="96" font-size="10" fill="#065695" text-anchor="end">1</text>
  <line x1="41" y1="92" x2="990" y2="92" stroke="#949494" stroke-width="1" stroke-dasharray="5,5"/>
  <line x1="30" y1="92" x2="990" y2="92" stroke="#757575" stroke-width="1" stroke-dasharray="5,5"/>
  <line x1="26" y1="92" x2="34" y2="92" stroke="#757575" stroke-width="1"/>
  <rect x="30" y="191" width="960" height="100" fill="#BABABA" stroke="#757575" stroke-width="1"/>
  <a xlink:href="http://knurdtech.com/" xlink:show="new">
    <text x="988" y="203" font-size="10" fill="#065695" text-anchor="end" xlink:show="new">KNURDTECH.COM</text>
  </a>
  <text x="21" y="279" font-size="10" fill="#065695" text-anchor="end">0.2</text>
  <line x1="41" y1="275" x2="990" y2="275" stroke="#949494" stroke-width="1" stroke-dasharray="5,5"/>
  <line x1="30" y1="275" x2="990" y2="275" stroke="#757575" stroke-width="1" stroke-dasharray="5,5"/>
  <line x1="26" y1="275" x2="34" y2="275" stroke="#757575" stroke-width="1"/>
  <text x="21" y="262" font-size="10" fill="#065695" text-anchor="end">0.4</text>
  <line x1="41" y1="258" x2="990" y2="258" stroke="#949494" stroke-width="1" stroke-dasharray="5,5"/>
  <line x1="30" y1="258" x2="990" y2="258" stroke="#757575" stroke-width="1" stroke-dasharray="5,5"/>
  <line x1="26" y1="258" x2="34" y2="258" stroke="#757575" stroke-width="1"/>
  <text x="21" y="245" font-size="10" fill="#065695" text-anchor="end">0.6</text>
  <line x1="41" y1="241" x2="990" y2="241" stroke="#949494" stroke-width="1" stroke-dasharray="5,5"/>
  <line x1="30" y1="241" x2="990" y2="241" stroke="#757575" stroke-width="1" stroke-dasharray="5,5"/>
  <line x1="26" y1="241" x2="34" y2="241" stroke="#757575" stroke-width="1"/>
  <text x="21" y="228" font-size="10" fill="#065695" text-anchor="end">0.8</text>
  <line x1="41" y1="224" x2="990" y2="224" stroke="#949494" stroke-width="1" stroke-dasharray="5,5"/>
  <line x1="30" y1="224" x2="990" y2="224" stroke="#757575" stroke-width="1" stroke-dasharray="5,5"/>
  <line x1="26" y1="224" x2="34" y2="224" stroke="#757575" stroke-width="1"/>
  <text x="21" y="211" font-size="10" fill="#065695" text-anchor="end">1</text>
  <line x1="41" y1="207" x2="990" y2="207" stroke="#949494" stroke-width="1" stroke-dasharray="5,5"/>
  <line x1="30" y1="207" x2="990" y2="207" stroke="#757575" stroke-width="1" stroke-dasharray="5,5"/>
  <line x1="26" y1="207" x2="34" y2="207" stroke="#757575" stroke-width="1"/>
  <rect x="30" y="306" width="960" height="100" fill="#BABABA" stroke="#757575" stroke-width="1"/>
  <a xlink:href="http://knurdtech.com/" xlink:show="new">
    <text x="988" y="318" font-size="10" fill="#065695" text-anchor="end" xlink:show="new">KNURDTECH.COM</text>
  </a>
  <text x="21" y="394" font-size="10" fill="#065695" text-anchor="end">0.2</text>
  <line x1="41" y1="390" x2="990" y2="390" stroke="#949494" stroke-width="1" stroke-dasharray="5,5"/>
  <line x1="30" y1="390" x2="990" y2="390" stroke="#757575" stroke-width="1" stroke-dasharray="5,5"/>
  <line x1="26" y1="390" x2="34" y2="390" stroke="#757575" stroke-width="1"/>
  <text x="21" y="377" font-size="10" fill="#065695" text-anchor="end">0.4</text>
  <line x1="41" y1="373" x2="990" y2="373" stroke="#949494" stroke-width="1" stroke-dasharray="5,5"/>
  <line x1="30" y1="373" x2="990" y2="373" stroke="#757575" stroke-width="1" stroke-dasharray="5,5"/>
  <line x1="26" y1="373" x2="34" y2="373" stroke="#757575" stroke-width="1"/>
  <text x="21" y="360" font-size="10" fill="#065695" text-anchor="end">0.6</text>
  <line x1="41" y1="356" x2="990" y2="356" stroke="#949494" stroke-width="1" stroke-dasharray="5,5"/>
  <line x1="30" y1="356" x2="990" y2="356" stroke="#757575" stroke-width="1" stroke-dasharray="5,5"/>
  <line x1="26" y1="356" x2="34" y2="356" stroke="#757575" stroke-width="1"/>
  <text x="21" y="343" font-size="10" fill="#065695" text-anchor="end">0.8</text>
  <line x1="41" y1="339" x2="990" y2="339" stroke="#949494" stroke-width="1" stroke-dasharray="5,5"/>
  <line x1="30" y1="339" x2="990" y2="339" stroke="#757575" stroke-width="1" stroke-dasharray="5,5"/>
  <line x1="26" y1="339" x2="34" y2="339" stroke="#757575" stroke-width="1"/>
  <text x="21" y="326" font-size="10" fill="#065695" text-anchor="end">1</text>
  <line x1="41" y1="322" x2="990" y2="322" stroke="#949494" stroke-width="1" stroke-dasharray="5,5"/>
  <line x1="30" y1="322" x2="990" y2="322" stroke="#757575" stroke-width="1" stroke-dasharray="5,5"/>
  <line x1="26" y1="322" x2="34" y2="322" stroke="#757575" stroke-width="1"/>
  <rect x="30" y="421" width="960" height="100" fill="#BABABA" stroke="#757575" stroke-width="1"/>
  <a xlink:href="http://knurdtech.com/" xlink:show="new">
    <text x="988" y="433" font-size="10" fill="#065695" text-anchor="end" xlink:show="new">KNURDTECH.COM</text>
  </a>
  <text x="21" y="509" font-size="10" fill="#065695" text-anchor="end">0.2</text>
  <line x1="41" y1="505" x2="990" y2="505" stroke="#949494" stroke-width="1" stroke-dasharray="5,5"/>
  <line x1="30" y1="505" x2="990" y2="505" stroke="#757575" stroke-width="1" stroke-dasharray="5,5"/>
  <line x1="26" y1="505" x2="34" y2="505" stroke="#757575" stroke-width="1"/>
  <text x="21" y="492" font-size="10" fill="#065695" text-anchor="end">0.4</text>
  <line x1="41" y1="488" x2="990" y2="488" stroke="#949494" stroke-width="1" stroke-dasharray="5,5"/>
  <line x1="30" y1="488" x2="990" y2="488" stroke="#757575" stroke-width="1" stroke-dasharray="5,5"/>
  <line x1="26" y1="488" x2="34" y2="488" stroke="#757575" stroke-width="1"/>
  <text x="21" y="475" font-size="10" fill="#065695" text-anchor="end">0.6</text>
  <line x1="41" y1="471" x2="990" y2="471" stroke="#949494" stroke-width="1" stroke-dasharray="5,5"/>
  <line x1="30" y1="471" x2="990" y2="471" stroke="#757575" stroke-width="1" stroke-dasharray="5,5"/>
  <line x1="26" y1="471" x2="34" y2="471" stroke="#757575" stroke-width="1"/>
  <text x="21" y="458" font-size="10" fill="#065695" text-anchor="end">0.8</text>
  <line x1="41" y1="454" x2="990" y2="454" stroke="#949494" stroke-width="1" stroke-dasharray="5,5"/>
  <line x1="30" y1="454" x2="990" y2="454" stroke="#757575" stroke-width="1" stroke-dasharray="5,5"/>
  <line x1="26" y1="454" x2="34" y2="454" stroke="#757575" stroke-width="1"/>
  <text x="21" y="441" font-size="10" fill="#065695" text-anchor="end">1</text>
  <line x1="41" y1="437" x2="990" y2="437" stroke="#949494" stroke-width="1" stroke-dasharray="5,5"/>
  <line x1="30" y1="437" x2="990" y2="437" stroke="#757575" stroke-width="1" stroke-dasharray="5,5"/>
  <line x1="26" y1="437" x2="34" y2="437" stroke="#757575" stroke-width="1"/>
  <text x="70" y="179" font-size="6.5" fill="#231f20" text-anchor="middle" dominant-baseline="text-before-edge">VP8 libvpx Encoding</text>
  <rect x="38" y="118" width="32" height="58" fill="#569506" stroke="#949494" stroke-width="1"/>
  <rect x="70" y="94" width="32" height="82" fill="#e12121" stroke="#949494" stroke-width="1"/>
  <text x="150" y="179" font-size="6.5" fill="#231f20" text-anchor="middle" dominant-baseline="text-before-edge">x264</text>
  <rect x="118" y="119" width="32" height="57" fill="#569506" stroke="#949494" stroke-width="1"/>
  <rect x="150" y="94" width="32" height="82" fill="#e12121" stroke="#949494" stroke-width="1"/>
  <text x="230" y="179" font-size="6.5" fill="#231f20" text-anchor="middle" dominant-baseline="text-before-edge">FFmpeg</text>
  <rect x="198" y="117" width="32" height="59" fill="#569506" stroke="#949494" stroke-width="1"/>
  <rect x="230" y="94" width="32" height="82" fill="#e12121" stroke="#949494" stroke-width="1"/>
  <text x="310" y="179" font-size="6.5" fill="#231f20" text-anchor="middle" dominant-baseline="text-before-edge">LAME MP3 Encoding</text>
  <rect x="278" y="115" width="32" height="61" fill="#569506" stroke="#949494" stroke-width="1"/>
  <rect x="310" y="94" width="32" height="82" fill="#e12121" stroke="#949494" stroke-width="1"/>
  <text x="390" y="179" font-size="6.5" fill="#231f20" text-anchor="middle" dominant-baseline="text-before-edge">FLAC Audio Encoding</text>
  <rect x="358" y="116" width="32" height="60" fill="#569506" stroke="#949494" stroke-width="1"/>
  <rect x="390" y="94" width="32" height="82" fill="#e12121" stroke="#949494" stroke-width="1"/>
  <text x="470" y="179" font-size="6.5" fill="#231f20" text-anchor="middle" dominant-baseline="text-before-edge">OpenArena</text>
  <rect x="438" y="119" width="32" height="57" fill="#569506" stroke="#949494" stroke-width="1"/>
  <rect x="470" y="94" width="32" height="82" fill="#e12121" stroke="#949494" stroke-width="1"/>
  <text x="550" y="179" font-size="6.5" fill="#231f20" text-anchor="middle" dominant-baseline="text-before-edge">OpenArena</text>
  <rect x="518" y="129" width="32" height="47" fill="#569506" stroke="#949494" stroke-width="1"/>
  <rect x="550" y="94" width="32" height="82" fill="#e12121" stroke="#949494" stroke-width="1"/>
  <text x="630" y="179" font-size="6.5" fill="#231f20" text-anchor="middle" dominant-baseline="text-before-edge">OpenArena</text>
  <rect x="598" y="133" width="32" height="43" fill="#569506" stroke="#949494" stroke-width="1"/>
  <rect x="630" y="94" width="32" height="82" fill="#e12121" stroke="#949494" stroke-width="1"/>
  <text x="710" y="179" font-size="6.5" fill="#231f20" text-anchor="middle" dominant-baseline="text-before-edge">OpenArena</text>
  <rect x="678" y="133" width="32" height="43" fill="#569506" stroke="#949494" stroke-width="1"/>
  <rect x="710" y="94" width="32" height="82" fill="#e12121" stroke="#949494" stroke-width="1"/>
  <text x="790" y="179" font-size="6.5" fill="#231f20" text-anchor="middle" dominant-baseline="text-before-edge">OpenArena</text>
  <rect x="758" y="134" width="32" height="42" fill="#569506" stroke="#949494" stroke-width="1"/>
  <rect x="790" y="94" width="32" height="82" fill="#e12121" stroke="#949494" stroke-width="1"/>
  <text x="870" y="179" font-size="6.5" fill="#231f20" text-anchor="middle" dominant-baseline="text-before-edge">OpenArena</text>
  <rect x="838" y="135" width="32" height="41" fill="#569506" stroke="#949494" stroke-width="1"/>
  <rect x="870" y="94" width="32" height="82" fill="#e12121" stroke="#949494" stroke-width="1"/>
  <text x="950" y="179" font-size="6.5" fill="#231f20" text-anchor="middle" dominant-baseline="text-before-edge">OpenArena</text>
  <rect x="918" y="136" width="32" height="40" fill="#569506" stroke="#949494" stroke-width="1"/>
  <rect x="950" y="94" width="32" height="82" fill="#e12121" stroke="#949494" stroke-width="1"/>
  <line x1="110" y1="176" x2="950" y2="176" stroke="#757575" stroke-width="10" stroke-dasharray="1,79"/>
  <line x1="30" y1="176" x2="990" y2="176" stroke="#757575" stroke-width="1"/>
  <text x="70" y="294" font-size="6.5" fill="#231f20" text-anchor="middle" dominant-baseline="text-before-edge">OpenArena</text>
  <rect x="38" y="252" width="32" height="39" fill="#569506" stroke="#949494" stroke-width="1"/>
  <rect x="70" y="209" width="32" height="82" fill="#e12121" stroke="#949494" stroke-width="1"/>
  <text x="150" y="294" font-size="6.5" fill="#231f20" text-anchor="middle" dominant-baseline="text-before-edge">OpenArena</text>
  <rect x="118" y="253" width="32" height="38" fill="#569506" stroke="#949494" stroke-width="1"/>
  <rect x="150" y="209" width="32" height="82" fill="#e12121" stroke="#949494" stroke-width="1"/>
  <text x="230" y="294" font-size="6.5" fill="#231f20" text-anchor="middle" dominant-baseline="text-before-edge">OpenArena</text>
  <rect x="198" y="253" width="32" height="38" fill="#569506" stroke="#949494" stroke-width="1"/>
  <rect x="230" y="209" width="32" height="82" fill="#e12121" stroke="#949494" stroke-width="1"/>
  <text x="310" y="294" font-size="6.5" fill="#231f20" text-anchor="middle" dominant-baseline="text-before-edge">Nexuiz</text>
  <rect x="278" y="229" width="32" height="62" fill="#569506" stroke="#949494" stroke-width="1"/>
  <rect x="310" y="209" width="32" height="82" fill="#e12121" stroke="#949494" stroke-width="1"/>
  <text x="390" y="294" font-size="6.5" fill="#231f20" text-anchor="middle" dominant-baseline="text-before-edge">Nexuiz</text>
  <rect x="358" y="226" width="32" height="65" fill="#569506" stroke="#949494" stroke-width="1"/>
  <rect x="390" y="209" width="32" height="82" fill="#e12121" stroke="#949494" stroke-width="1"/>
  <text x="470" y="294" font-size="6.5" fill="#231f20" text-anchor="middle" dominant-baseline="text-before-edge">Nexuiz</text>
  <rect x="438" y="237" width="32" height="54" fill="#569506" stroke="#949494" stroke-width="1"/>
  <rect x="470" y="209" width="32" height="82" fill="#e12121" stroke="#949494" stroke-width="1"/>
  <text x="550" y="294" font-size="6.5" fill="#231f20" text-anchor="middle" dominant-baseline="text-before-edge">Nexuiz</text>
  <rect x="518" y="237" width="32" height="54" fill="#569506" stroke="#949494" stroke-width="1"/>
  <rect x="550" y="209" width="32" height="82" fill="#e12121" stroke="#949494" stroke-width="1"/>
  <text x="630" y="294" font-size="6.5" fill="#231f20" text-anchor="middle" dominant-baseline="text-before-edge">Nexuiz</text>
  <rect x="598" y="236" width="32" height="55" fill="#569506" stroke="#949494" stroke-width="1"/>
  <rect x="630" y="209" width="32" height="82" fill="#e12121" stroke="#949494" stroke-width="1"/>
  <text x="710" y="294" font-size="6.5" fill="#231f20" text-anchor="middle" dominant-baseline="text-before-edge">Nexuiz</text>
  <rect x="678" y="234" width="32" height="57" fill="#569506" stroke="#949494" stroke-width="1"/>
  <rect x="710" y="209" width="32" height="82" fill="#e12121" stroke="#949494" stroke-width="1"/>
  <text x="790" y="294" font-size="6.5" fill="#231f20" text-anchor="middle" dominant-baseline="text-before-edge">Nexuiz</text>
  <rect x="758" y="244" width="32" height="47" fill="#569506" stroke="#949494" stroke-width="1"/>
  <rect x="790" y="209" width="32" height="82" fill="#e12121" stroke="#949494" stroke-width="1"/>
  <text x="870" y="294" font-size="6.5" fill="#231f20" text-anchor="middle" dominant-baseline="text-before-edge">Nexuiz</text>
  <rect x="838" y="244" width="32" height="47" fill="#569506" stroke="#949494" stroke-width="1"/>
  <rect x="870" y="209" width="32" height="82" fill="#e12121" stroke="#949494" stroke-width="1"/>
  <text x="950" y="294" font-size="6.5" fill="#231f20" text-anchor="middle" dominant-baseline="text-before-edge">Nexuiz</text>
  <rect x="918" y="242" width="32" height="49" fill="#569506" stroke="#949494" stroke-width="1"/>
  <rect x="950" y="209" width="32" height="82" fill="#e12121" stroke="#949494" stroke-width="1"/>
  <line x1="110" y1="291" x2="950" y2="291" stroke="#757575" stroke-width="10" stroke-dasharray="1,79"/>
  <line x1="30" y1="291" x2="990" y2="291" stroke="#757575" stroke-width="1"/>
  <text x="70" y="409" font-size="6.5" fill="#231f20" text-anchor="middle" dominant-baseline="text-before-edge">Nexuiz</text>
  <rect x="38" y="356" width="32" height="50" fill="#569506" stroke="#949494" stroke-width="1"/>
  <rect x="70" y="324" width="32" height="82" fill="#e12121" stroke="#949494" stroke-width="1"/>
  <text x="150" y="409" font-size="6.5" fill="#231f20" text-anchor="middle" dominant-baseline="text-before-edge">Nexuiz</text>
  <rect x="118" y="365" width="32" height="41" fill="#569506" stroke="#949494" stroke-width="1"/>
  <rect x="150" y="324" width="32" height="82" fill="#e12121" stroke="#949494" stroke-width="1"/>
  <text x="230" y="409" font-size="6.5" fill="#231f20" text-anchor="middle" dominant-baseline="text-before-edge">Nexuiz</text>
  <rect x="198" y="364" width="32" height="42" fill="#569506" stroke="#949494" stroke-width="1"/>
  <rect x="230" y="324" width="32" height="82" fill="#e12121" stroke="#949494" stroke-width="1"/>
  <text x="310" y="409" font-size="6.5" fill="#231f20" text-anchor="middle" dominant-baseline="text-before-edge">Xonotic</text>
  <rect x="278" y="353" width="32" height="53" fill="#569506" stroke="#949494" stroke-width="1"/>
  <rect x="310" y="324" width="32" height="82" fill="#e12121" stroke="#949494" stroke-width="1"/>
  <text x="390" y="409" font-size="6.5" fill="#231f20" text-anchor="middle" dominant-baseline="text-before-edge">Xonotic</text>
  <rect x="358" y="353" width="32" height="53" fill="#569506" stroke="#949494" stroke-width="1"/>
  <rect x="390" y="324" width="32" height="82" fill="#e12121" stroke="#949494" stroke-width="1"/>
  <text x="470" y="409" font-size="6.5" fill="#231f20" text-anchor="middle" dominant-baseline="text-before-edge">Xonotic</text>
  <rect x="438" y="368" width="32" height="38" fill="#569506" stroke="#949494" stroke-width="1"/>
  <rect x="470" y="324" width="32" height="82" fill="#e12121" stroke="#949494" stroke-width="1"/>
  <text x="550" y="409" font-size="6.5" fill="#231f20" text-anchor="middle" dominant-baseline="text-before-edge">Xonotic</text>
  <rect x="518" y="351" width="32" height="55" fill="#569506" stroke="#949494" stroke-width="1"/>
  <rect x="550" y="324" width="32" height="82" fill="#e12121" stroke="#949494" stroke-width="1"/>
  <text x="630" y="409" font-size="6.5" fill="#231f20" text-anchor="middle" dominant-baseline="text-before-edge">Xonotic</text>
  <rect x="598" y="351" width="32" height="55" fill="#569506" stroke="#949494" stroke-width="1"/>
  <rect x="630" y="324" width="32" height="82" fill="#e12121" stroke="#949494" stroke-width="1"/>
  <text x="710" y="409" font-size="6.5" fill="#231f20" text-anchor="middle" dominant-baseline="text-before-edge">Xonotic</text>
  <rect x="678" y="360" width="32" height="46" fill="#569506" stroke="#949494" stroke-width="1"/>
  <rect x="710" y="324" width="32" height="82" fill="#e12121" stroke="#949494" stroke-width="1"/>
  <text x="790" y="409" font-size="6.5" fill="#231f20" text-anchor="middle" dominant-baseline="text-before-edge">Xonotic</text>
  <rect x="758" y="375" width="32" height="31" fill="#569506" stroke="#949494" stroke-width="1"/>
  <rect x="790" y="324" width="32" height="82" fill="#e12121" stroke="#949494" stroke-width="1"/>
  <text x="870" y="409" font-size="6.5" fill="#231f20" text-anchor="middle" dominant-baseline="text-before-edge">Xonotic</text>
  <rect x="838" y="353" width="32" height="53" fill="#569506" stroke="#949494" stroke-width="1"/>
  <rect x="870" y="324" width="32" height="82" fill="#e12121" stroke="#949494" stroke-width="1"/>
  <text x="950" y="409" font-size="6.5" fill="#231f20" text-anchor="middle" dominant-baseline="text-before-edge">Xonotic</text>
  <rect x="918" y="356" width="32" height="50" fill="#569506" stroke="#949494" stroke-width="1"/>
  <rect x="950" y="324" width="32" height="82" fill="#e12121" stroke="#949494" stroke-width="1"/>
  <line x1="110" y1="406" x2="950" y2="406" stroke="#757575" stroke-width="10" stroke-dasharray="1,79"/>
  <line x1="30" y1="406" x2="990" y2="406" stroke="#757575" stroke-width="1"/>
  <text x="70" y="524" font-size="6.5" fill="#231f20" text-anchor="middle" dominant-baseline="text-before-edge">Xonotic</text>
  <rect x="38" y="483" width="32" height="38" fill="#569506" stroke="#949494" stroke-width="1"/>
  <rect x="70" y="439" width="32" height="82" fill="#e12121" stroke="#949494" stroke-width="1"/>
  <text x="150" y="524" font-size="6.5" fill="#231f20" text-anchor="middle" dominant-baseline="text-before-edge">Xonotic</text>
  <rect x="118" y="494" width="32" height="27" fill="#569506" stroke="#949494" stroke-width="1"/>
  <rect x="150" y="439" width="32" height="82" fill="#e12121" stroke="#949494" stroke-width="1"/>
  <text x="230" y="524" font-size="6.5" fill="#231f20" text-anchor="middle" dominant-baseline="text-before-edge">Xonotic</text>
  <rect x="198" y="484" width="32" height="37" fill="#569506" stroke="#949494" stroke-width="1"/>
  <rect x="230" y="439" width="32" height="82" fill="#e12121" stroke="#949494" stroke-width="1"/>
  <text x="310" y="524" font-size="6.5" fill="#231f20" text-anchor="middle" dominant-baseline="text-before-edge">Xonotic</text>
  <rect x="278" y="476" width="32" height="45" fill="#569506" stroke="#949494" stroke-width="1"/>
  <rect x="310" y="439" width="32" height="82" fill="#e12121" stroke="#949494" stroke-width="1"/>
  <text x="495" y="19" font-size="17" fill="#231f20" text-anchor="middle" xlink:show="new">2012-04-30-1752</text>
  <a xlink:href="http://www.phoronix-test-suite.com/" xlink:show="new">
    <text x="990" y="73" font-size="7" fill="#949494" text-anchor="end" xlink:show="new">Phoronix Test Suite 4.0.0m2</text>
  </a>
</svg>
